<svg width="25" height="25" viewBox="0 0 25 25" fill="none" xmlns="http://www.w3.org/2000/svg">
<g clip-path="url(#clip0_308_1222)">
<path d="M14.443 7.94287V1.40287C15.368 1.75221 16.2083 2.29418 16.908 2.99287L20.392 6.47887C21.0915 7.17775 21.6339 8.01777 21.983 8.94287H15.443C15.1778 8.94287 14.9234 8.83751 14.7359 8.64998C14.5484 8.46244 14.443 8.20809 14.443 7.94287ZM22.443 11.4279V19.9429C22.4414 21.2685 21.9141 22.5393 20.9768 23.4767C20.0394 24.414 18.7686 24.9413 17.443 24.9429H7.44299C6.1174 24.9413 4.84655 24.414 3.90921 23.4767C2.97188 22.5393 2.44458 21.2685 2.44299 19.9429V5.94287C2.44458 4.61728 2.97188 3.34643 3.90921 2.40909C4.84655 1.47175 6.1174 0.944459 7.44299 0.942871L11.958 0.942871C12.121 0.942871 12.282 0.955871 12.443 0.966871V7.94287C12.443 8.73852 12.7591 9.50158 13.3217 10.0642C13.8843 10.6268 14.6473 10.9429 15.443 10.9429H22.419C22.43 11.1039 22.443 11.2649 22.443 11.4279ZM14.443 19.9429C14.443 19.6777 14.3376 19.4233 14.1501 19.2358C13.9626 19.0482 13.7082 18.9429 13.443 18.9429H8.44299C8.17778 18.9429 7.92342 19.0482 7.73589 19.2358C7.54835 19.4233 7.44299 19.6777 7.44299 19.9429C7.44299 20.2081 7.54835 20.4624 7.73589 20.65C7.92342 20.8375 8.17778 20.9429 8.44299 20.9429H13.443C13.7082 20.9429 13.9626 20.8375 14.1501 20.65C14.3376 20.4624 14.443 20.2081 14.443 19.9429ZM17.443 15.9429C17.443 15.6777 17.3376 15.4233 17.1501 15.2358C16.9626 15.0482 16.7082 14.9429 16.443 14.9429H8.44299C8.17778 14.9429 7.92342 15.0482 7.73589 15.2358C7.54835 15.4233 7.44299 15.6777 7.44299 15.9429C7.44299 16.2081 7.54835 16.4624 7.73589 16.65C7.92342 16.8375 8.17778 16.9429 8.44299 16.9429H16.443C16.7082 16.9429 16.9626 16.8375 17.1501 16.65C17.3376 16.4624 17.443 16.2081 17.443 15.9429Z" fill="#AD2330"/>
</g>
<defs>
<clipPath id="clip0_308_1222">
<rect width="24" height="24" fill="white" transform="translate(0.442871 0.942871)"/>
</clipPath>
</defs>
</svg>
