<svg width="37" height="39" viewBox="0 0 37 39" fill="none" xmlns="http://www.w3.org/2000/svg">
<path d="M36.9974 19.5007C36.9974 29.3494 30.0716 37.4915 21.0743 38.8128C20.2331 38.9358 19.3724 39 18.4987 39C17.4902 39 16.4999 38.9153 15.5355 38.7513C6.72751 37.2565 0 29.2059 0 19.5007C0 8.73103 8.283 0 18.5 0C28.717 0 37 8.73103 37 19.5007H36.9974Z" fill="#63666A"/>
<path d="M20.7135 12.8586V16.5242H24.9989L24.3203 21.462H20.7135V32.8385C19.9903 32.9446 19.2505 33 18.4994 33C17.6326 33 16.7813 32.9269 15.9523 32.7854V21.462H12V16.5242H15.9523V12.0392C15.9523 9.25667 18.0838 7 20.7146 7V7.00236C20.7224 7.00236 20.7291 7 20.7369 7H25V11.2705H22.2144C21.3865 11.2705 20.7146 11.9814 20.7146 12.8574L20.7135 12.8586Z" fill="white"/>
</svg>
