<svg width="37" height="39" viewBox="0 0 37 39" fill="none" xmlns="http://www.w3.org/2000/svg">
<path d="M18.5421 0H18.4579C8.26387 0 0 8.71057 0 19.4556V19.5444C0 30.2894 8.26387 39 18.4579 39H18.5421C28.7361 39 37 30.2894 37 19.5444V19.4556C37 8.71057 28.7361 0 18.5421 0Z" fill="#63666A"/>
<path d="M24.225 7.93457H12.7761C9.61317 7.93457 7.04004 10.6468 7.04004 13.9807V25.0209C7.04004 28.3548 9.61317 31.067 12.7761 31.067H24.225C27.3879 31.067 29.961 28.3548 29.961 25.0209V13.9807C29.961 10.6468 27.3879 7.93457 24.225 7.93457ZM9.06355 13.9807C9.06355 11.8232 10.7293 10.0675 12.7761 10.0675H24.225C26.2718 10.0675 27.9375 11.8232 27.9375 13.9807V25.0209C27.9375 27.1784 26.2718 28.9342 24.225 28.9342H12.7761C10.7293 28.9342 9.06355 27.1784 9.06355 25.0209V13.9807Z" fill="white"/>
<path d="M18.5006 25.1234C21.4419 25.1234 23.8361 22.6011 23.8361 19.4994C23.8361 16.3978 21.4432 13.8755 18.5006 13.8755C15.558 13.8755 13.165 16.3978 13.165 19.4994C13.165 22.6011 15.558 25.1234 18.5006 25.1234ZM18.5006 16.0097C20.327 16.0097 21.8126 17.5756 21.8126 19.5008C21.8126 21.426 20.327 22.9918 18.5006 22.9918C16.6741 22.9918 15.1885 21.426 15.1885 19.5008C15.1885 17.5756 16.6741 16.0097 18.5006 16.0097Z" fill="white"/>
<path d="M24.3299 14.784C25.1219 14.784 25.7675 14.1049 25.7675 13.2687C25.7675 12.4325 25.1232 11.7534 24.3299 11.7534C23.5366 11.7534 22.8923 12.4325 22.8923 13.2687C22.8923 14.1049 23.5366 14.784 24.3299 14.784Z" fill="white"/>
</svg>
