<svg width="20" height="20" viewBox="0 0 20 20" fill="none" xmlns="http://www.w3.org/2000/svg">
<g clip-path="url(#clip0_219_370)">
<path d="M18.2856 0.0569329H17.0958C16.7693 0.0560029 16.4458 0.1199 16.1441 0.244921C15.8424 0.369942 15.5686 0.5536 15.3384 0.785247L8.27319 7.8455C6.94153 7.39059 5.49508 7.39998 4.16943 7.87214C2.84379 8.34429 1.71707 9.2514 0.972814 10.4457C0.228554 11.64 -0.0893962 13.0511 0.0707549 14.4492C0.230906 15.8472 0.859721 17.1499 1.85477 18.145C2.84983 19.14 4.15248 19.7688 5.55056 19.929C6.94863 20.0891 8.35974 19.7712 9.55403 19.0269C10.7483 18.2826 11.6554 17.1559 12.1276 15.8303C12.5997 14.5046 12.6091 13.0582 12.1542 11.7265L14.1428 9.73796V6.6855H16.6285V4.19979H19.5708C19.8127 3.81074 19.9415 3.36203 19.9428 2.9039V1.71408C19.9428 1.27457 19.7682 0.853073 19.4574 0.542299C19.1467 0.231524 18.7251 0.0569329 18.2856 0.0569329ZM4.61422 16.6284C4.36841 16.6284 4.12811 16.5555 3.92372 16.4189C3.71934 16.2823 3.56004 16.0882 3.46597 15.8611C3.3719 15.634 3.34729 15.3841 3.39524 15.143C3.4432 14.9019 3.56157 14.6805 3.73539 14.5067C3.9092 14.3329 4.13066 14.2145 4.37175 14.1665C4.61284 14.1186 4.86274 14.1432 5.08984 14.2373C5.31694 14.3313 5.51105 14.4906 5.64762 14.695C5.78418 14.8994 5.85708 15.1397 5.85708 15.3855C5.85708 15.7151 5.72613 16.0313 5.49305 16.2643C5.25997 16.4974 4.94385 16.6284 4.61422 16.6284Z" fill="#AD2330"/>
</g>
<defs>
<clipPath id="clip0_219_370">
<rect width="19.8857" height="19.8857" fill="white" transform="translate(0.0571289 0.0571442)"/>
</clipPath>
</defs>
</svg>
