<svg width="17" height="17" viewBox="0 0 17 17" fill="none" xmlns="http://www.w3.org/2000/svg">
<g clip-path="url(#clip0_219_790)">
<path d="M15.692 5.1466L11.8988 1.35538C11.6304 1.07772 11.2729 0.903271 10.8889 0.86257C10.5049 0.82187 10.1188 0.917506 9.79811 1.13275C9.60908 1.26718 9.45164 1.44124 9.33679 1.64277C9.22193 1.84431 9.15242 2.06848 9.13311 2.29964C9.11379 2.5308 9.14514 2.76339 9.22496 2.98119C9.30478 3.199 9.43114 3.39677 9.59525 3.56071L9.97291 3.93772C10.0691 4.03454 10.1231 4.16549 10.1231 4.30198C10.1231 4.43848 10.0691 4.56943 9.97291 4.66624L8.63325 6.0059C8.51569 6.12295 8.36981 6.20756 8.20984 6.25149C8.04986 6.29543 7.88123 6.29719 7.72037 6.2566L7.19727 6.12264C6.59403 5.96517 5.96732 5.91784 5.34727 5.98293C4.93979 6.02531 4.55291 6.1833 4.23225 6.43829C3.9116 6.69328 3.67053 7.03463 3.53746 7.4221C3.39171 7.82261 3.36333 8.25641 3.45565 8.6725C3.54798 9.08859 3.75718 9.46968 4.05865 9.77096L5.17248 10.9243L1.03167 15.0664C0.970738 15.1253 0.922139 15.1957 0.888706 15.2735C0.855272 15.3513 0.837674 15.435 0.836938 15.5197C0.836202 15.6044 0.852343 15.6884 0.884419 15.7668C0.916494 15.8452 0.963863 15.9165 1.02376 15.9764C1.08366 16.0363 1.15488 16.0836 1.23328 16.1157C1.31168 16.1478 1.39568 16.1639 1.48039 16.1632C1.56509 16.1624 1.6488 16.1448 1.72663 16.1114C1.80446 16.078 1.87485 16.0294 1.9337 15.9685L6.0592 11.843L6.85662 12.6684C7.39719 13.242 8.14281 13.5782 8.93053 13.6036C9.18519 13.6039 9.43803 13.5608 9.67818 13.4761C10.0447 13.3496 10.3666 13.1196 10.6051 12.8139C10.8435 12.5082 10.9882 12.1399 11.0217 11.7536C11.0862 11.1393 11.04 10.5183 10.8851 9.92023L10.7499 9.26572C10.712 9.10608 10.7155 8.9394 10.7602 8.78152C10.8048 8.62363 10.8892 8.4798 11.0051 8.36369L12.3377 7.03296C12.4414 6.93787 12.5754 6.88271 12.716 6.87731C12.7777 6.87718 12.8389 6.88936 12.8958 6.91313C12.9528 6.9369 13.0044 6.97178 13.0477 7.01574L13.3705 7.33853C13.6375 7.62361 13.9974 7.80421 14.3855 7.84794C14.7737 7.89166 15.1647 7.79565 15.4885 7.57712C15.6775 7.44273 15.835 7.26871 15.9499 7.0672C16.0649 6.86569 16.1344 6.64154 16.1538 6.41037C16.1732 6.17921 16.1419 5.9466 16.0621 5.72877C15.9824 5.51095 15.856 5.31314 15.692 5.14915V5.1466Z" fill="#AD2330"/>
</g>
<defs>
<clipPath id="clip0_219_790">
<rect width="15.3103" height="15.3103" fill="white" transform="translate(0.844727 0.844826)"/>
</clipPath>
</defs>
</svg>
