<svg width="37" height="39" viewBox="0 0 37 39" fill="none" xmlns="http://www.w3.org/2000/svg">
<path d="M36.9974 19.5007C36.9974 29.3494 30.0716 37.4915 21.0743 38.8128C20.2331 38.9358 19.3724 39 18.4987 39C17.4902 39 16.4999 38.9153 15.5355 38.7513C6.72751 37.2565 0 29.2059 0 19.5007C0 8.73103 8.283 0 18.5 0C28.717 0 37 8.73103 37 19.5007H36.9974Z" fill="#63666A"/>
<path d="M7.50261 8.60107L16.0345 20.625L7.44946 30.4013H9.38217L16.8991 21.8425L22.972 30.4013H29.5478L20.5363 17.701L28.5277 8.60107H26.595L19.673 16.4836L14.0798 8.60107H7.5039H7.50261ZM10.344 10.1013H13.3642L26.7039 28.9011H23.6836L10.344 10.1013Z" fill="white"/>
</svg>
