<svg width="37" height="39" viewBox="0 0 37 39" fill="none" xmlns="http://www.w3.org/2000/svg">
<path d="M37 19.5C37 8.73045 28.7173 0 18.5 0C8.28274 0 0 8.73045 0 19.5C0 30.2696 8.28274 39 18.5 39C28.7173 39 37 30.2696 37 19.5Z" fill="#63666A"/>
<path d="M30.1492 15.4589C30.0036 13.9777 29.6903 12.3402 28.5372 11.4797C27.6441 10.8124 26.4702 10.7877 25.3744 10.7891C23.0578 10.7891 20.7399 10.7932 18.4234 10.7946C16.1952 10.7973 13.967 10.7987 11.7389 10.8014C10.8081 10.8014 9.9033 10.7261 9.03881 11.1509C8.29652 11.5153 7.71543 12.2087 7.36574 12.9801C6.88085 14.053 6.77945 15.2685 6.72095 16.4551C6.61305 18.616 6.62475 20.7823 6.75345 22.9418C6.84835 24.5176 7.08884 26.2592 8.24452 27.2636C9.26891 28.1529 10.7145 28.1967 12.0431 28.1981C16.2602 28.2022 20.4786 28.2063 24.6971 28.2091C25.2379 28.2104 25.8021 28.1995 26.3532 28.1365C27.4374 28.0131 28.4709 27.6856 29.1677 26.8388C29.871 25.9852 30.0517 24.7972 30.1583 23.6722C30.4183 20.9426 30.4157 18.1871 30.1492 15.4589ZM15.9846 23.3255V15.6727L22.2713 19.4984L15.9846 23.3255Z" fill="white"/>
</svg>
